<svg width="189" height="36" viewBox="0 0 189 36" fill="none" xmlns="http://www.w3.org/2000/svg">
<path d="M0.897217 2.54233V35.3079H7.34629V14.5871L14.7358 28.4779H19.4831L26.8726 14.5871V35.3079H33.3217V2.54233H27.2757L17.199 21.4633L7.16715 2.54233H0.897217ZM37.8233 23.0785C37.8233 30.4623 42.7945 36.0001 49.9153 36.0001C54.3491 36.0001 58.9619 33.7388 60.6638 29.3547L55.0656 27.5088C53.9012 29.447 52.1994 30.5546 49.9601 30.5546C46.5564 30.5546 44.6755 27.9702 44.1828 24.7398H61.1564V23.1246C61.1564 15.7408 56.8123 10.2492 49.6018 10.2492C42.5258 10.2492 37.8233 16.1562 37.8233 23.0785ZM49.6018 15.2332C52.6024 15.2332 54.3043 17.5406 54.7074 20.4019H44.2724C44.8098 17.5406 46.6012 15.2332 49.6018 15.2332ZM63.0836 10.9414V16.1562H67.1143V27.5088C67.1143 32.7697 70.0253 36.0001 75.0412 36.0001C77.0118 36.0001 79.0271 35.4925 80.729 34.3849L79.6093 29.5393C78.5345 30.0008 77.4596 30.37 76.2952 30.37C74.1008 30.37 73.3842 28.7548 73.3842 26.7242V16.1562H79.8333V10.9414H73.3842V2.63463H67.1143V10.9414H63.0836ZM91.5481 36.0001C94.2352 36.0001 97.1015 34.8925 98.5346 32.4467L98.7137 35.3079H104.312V20.5403C104.312 14.1718 99.9677 10.2492 94.0561 10.2492C89.7119 10.2492 85.0095 12.6489 83.9794 17.3099L89.5775 18.4636C90.2493 16.5254 92.0407 15.5563 93.9665 15.5563C96.6984 15.5563 98.2211 17.4945 98.2211 20.2173V21.6479C96.3849 20.9556 94.8174 20.5865 92.8469 20.5865C88.1444 20.5865 83.1285 22.94 83.1285 28.3856C83.1285 33.2312 87.2487 36.0001 91.5481 36.0001ZM89.3088 28.0625C89.3088 25.6167 91.9512 24.9244 93.8769 24.9244C94.6383 24.9244 95.3548 25.0167 96.1162 25.1552C96.8775 25.3398 97.5493 25.5705 98.2211 25.8474V26.0781C98.2211 29.0778 95.8027 31.016 93.0708 31.016C91.3242 31.016 89.3088 30.1392 89.3088 28.0625ZM109.308 0.880981V35.3079H115.086L115.265 32.1236C116.922 34.7079 119.609 36.0001 122.565 36.0001C129.506 36.0001 133.806 29.5854 133.806 22.9862C133.806 16.3869 129.641 10.2492 122.923 10.2492C119.967 10.2492 117.37 11.5875 115.578 14.0333V0.880981H109.308ZM121.445 16.0639C125.252 16.0639 127.401 19.525 127.401 23.1246C127.401 26.7704 125.162 30.1854 121.445 30.1854C117.683 30.1854 115.489 26.6781 115.489 23.1246C115.489 19.4789 117.728 16.0639 121.445 16.0639ZM137.911 10.9414V35.3079H144.181V21.3248C144.181 18.3252 146.107 16.0639 149.018 16.0639C152.108 16.0639 153.228 18.6944 153.228 21.5094V35.3079H159.498V20.6788C159.498 15.0025 156.676 10.2492 150.854 10.2492C147.988 10.2492 145.346 11.4952 143.868 14.0795L143.689 10.9414H137.911ZM164.503 0.880981V35.3079H170.28L170.459 32.1236C172.116 34.7079 174.803 36.0001 177.759 36.0001C184.701 36.0001 189 29.5854 189 22.9862C189 16.3869 184.835 10.2492 178.117 10.2492C175.161 10.2492 172.564 11.5875 170.772 14.0333V0.880981H164.503ZM176.639 16.0639C180.446 16.0639 182.596 19.525 182.596 23.1246C182.596 26.7704 180.356 30.1854 176.639 30.1854C172.877 30.1854 170.683 26.6781 170.683 23.1246C170.683 19.4789 172.922 16.0639 176.639 16.0639Z" fill="#F7F7F7"/>
</svg>
